<?xml version="1.0" encoding="utf-8"?>
<!-- Generator: Adobe Illustrator 21.0.2, SVG Export Plug-In . SVG Version: 6.00 Build 0)  -->
<svg version="1.1" id="Layer_1" xmlns="http://www.w3.org/2000/svg" xmlns:xlink="http://www.w3.org/1999/xlink" x="0px" y="0px"
	 viewBox="0 0 56.8 56.8" style="enable-background:new 0 0 56.8 56.8;" xml:space="preserve">
<g>
	<circle cx="0" cy="0" r="28.4" fill="tomato"/>
	<path fill="black" stroke="black" d="M0.3,13.9c0-0.1-0.1-0.3-0.2-0.3c0,0,0,0-0.1,0c-0.7,0-1.3-0.3-1.8-0.7c-0.5-0.5-0.7-1.1-0.7-1.8
		c0-0.1-0.1-0.3-0.2-0.3c0,0,0,0-0.1,0c-0.1,0-0.3,0.1-0.3,0.2c0,0,0,0,0,0.1c0,0.8,0.3,1.6,0.9,2.2c0.6,0.6,1.4,0.9,2.2,0.9
		C0.1,14.2,0.3,14.1,0.3,13.9C0.3,14,0.3,14,0.3,13.9z M-11.3,8.9h22.7C8.2,5.4,6.7,0.6,6.7-5.6c0-0.6-0.2-1.3-0.4-1.8
		C6-8.1,5.6-8.7,5.1-9.2C4.5-9.8,3.8-10.3,3-10.6c-1-0.4-2-0.6-3-0.6c-1,0-2,0.2-3,0.6c-0.8,0.3-1.5,0.8-2.1,1.4
		C-5.6-8.7-6-8.1-6.3-7.4c-0.3,0.6-0.4,1.2-0.4,1.8C-6.7,0.6-8.2,5.4-11.3,8.9L-11.3,8.9z M14.5,8.9c0,1.2-1,2.2-2.2,2.2H4.5
		c0,1.2-0.5,2.3-1.3,3.1c-0.8,0.8-2,1.3-3.2,1.3c-1.2,0-2.3-0.5-3.2-1.3c-0.9-0.8-1.3-2-1.3-3.1h-7.8c-0.6,0-1.2-0.2-1.6-0.7
		c-0.4-0.4-0.7-1-0.7-1.6c0.6-0.5,1.1-1,1.6-1.5c0.6-0.6,1.1-1.3,1.5-2.1c0.5-0.9,1-1.8,1.3-2.8C-9.7,1.4-9.4,0.2-9.3-1
		C-9-2.5-8.9-4-8.9-5.5c0-1.8,0.7-3.6,2-4.9c1.4-1.5,3.3-2.5,5.3-2.8c-0.1-0.2-0.1-0.4-0.1-0.7c0-0.4,0.2-0.9,0.5-1.2
		c0.3-0.3,0.8-0.5,1.2-0.5c0.4,0,0.9,0.2,1.2,0.5c0.3,0.3,0.5,0.7,0.5,1.2c0,0.2,0,0.5-0.1,0.7c2.1,0.2,4,1.2,5.3,2.8
		c1.3,1.3,2,3.1,2,4.9C8.9-4,9-2.5,9.3-1c0.2,1.2,0.5,2.4,0.9,3.6c0.3,1,0.8,1.9,1.3,2.8c0.4,0.7,0.9,1.4,1.5,2.1
		C13.4,8,13.9,8.5,14.5,8.9L14.5,8.9z"/>
</g>
</svg>
