<?xml version="1.0" encoding="utf-8"?>
<!-- Generator: Adobe Illustrator 21.0.2, SVG Export Plug-In . SVG Version: 6.00 Build 0)  -->
<svg version="1.1" id="Layer_1" xmlns="http://www.w3.org/2000/svg" xmlns:xlink="http://www.w3.org/1999/xlink" x="0px" y="0px"
	 viewBox="0 0 74.3 74.3" style="enable-background:new 0 0 74.3 74.3;" xml:space="preserve">
<g fill="blue">
	<path d="M29-0.4l6.6,6.5c1,0.8,1.4,2.2,1,3.4c-0.3,1.2-1.3,2.2-2.5,2.5L25,14.3l2.6,9c0.4,1.2,0,2.5-1,3.3c-0.8,1-2.2,1.3-3.4,0.9
		l-9-2.6l-2.3,9.1c-0.3,1.2-1.2,2.2-2.4,2.5c-0.3,0.1-0.6,0.1-0.9,0.1c-0.9,0-1.8-0.4-2.5-1.1L-0.4,29l-6.5,6.6
		c-0.8,1-2.2,1.4-3.4,1c-1.2-0.3-2.2-1.3-2.5-2.5l-2.3-9.1l-9,2.6c-1.2,0.4-2.6,0-3.4-1c-1-0.8-1.4-2.1-1-3.3l2.6-9L-35,12
		c-1.2-0.3-2.1-1.2-2.4-2.4c-0.4-1.2,0-2.5,1-3.4l6.6-6.5l-6.6-6.5c-1-0.8-1.4-2.2-1-3.4c0.3-1.2,1.3-2.2,2.5-2.5l9.1-2.3l-2.6-9
		c-0.4-1.2,0-2.5,0.9-3.4c0.8-1,2.2-1.3,3.4-0.9l9,2.6l2.3-9.1c0.2-1.2,1.2-2.2,2.5-2.5c1.2-0.4,2.6,0,3.4,1l6.5,6.7l6.5-6.7
		c0.8-1,2.2-1.4,3.4-1c1.2,0.2,2.2,1.2,2.5,2.5l2.3,9.1l9-2.6c1.2-0.4,2.5,0,3.4,0.9c1,0.8,1.4,2.2,1,3.4l-2.6,9l9.1,2.3
		c1.2,0.3,2.1,1.2,2.4,2.5c0.4,1.2,0,2.5-1,3.4L29-0.4z"/>
</g>
</svg>
