<?xml version="1.0" encoding="utf-8"?>
<!-- Generator: Adobe Illustrator 21.0.2, SVG Export Plug-In . SVG Version: 6.00 Build 0)  -->
<svg version="1.1" id="Layer_1" xmlns="http://www.w3.org/2000/svg" xmlns:xlink="http://www.w3.org/1999/xlink" x="0px" y="0px"
	 viewBox="0 0 56.8 56.8" style="enable-background:new 0 0 56.8 56.8;" xml:space="preserve">
<g>
	<path d="M0-28.4c5.2,0,9.9,1.3,14.3,3.8s7.8,6,10.3,10.3S28.4-5.2,28.4,0s-1.3,9.9-3.8,14.3s-6,7.8-10.3,10.3S5.2,28.4,0,28.4
		s-9.9-1.3-14.3-3.8s-7.8-6-10.3-10.3c-2.5-4.4-3.8-9.1-3.8-14.3s1.3-9.9,3.8-14.3c2.5-4.4,6-7.8,10.3-10.3S-5.2-28.4,0-28.4z
		 M4.7,17.7v-7c0-0.3-0.1-0.6-0.3-0.9C4.2,9.6,3.9,9.5,3.6,9.5h-7.1c-0.3,0-0.6,0.1-0.9,0.4c-0.2,0.2-0.4,0.5-0.4,0.9v7
		c0,0.3,0.1,0.6,0.4,0.9c0.2,0.2,0.5,0.4,0.9,0.4h7.1c0.3,0,0.6-0.1,0.8-0.4C4.6,18.3,4.7,18.1,4.7,17.7z M4.7,5l0.7-23
		c0-0.3-0.1-0.5-0.4-0.7c-0.2-0.2-0.5-0.3-0.9-0.3h-8.1c-0.3,0-0.6,0.1-0.9,0.3c-0.2,0.1-0.4,0.4-0.4,0.7l0.6,23
		c0,0.2,0.1,0.5,0.4,0.6c0.2,0.2,0.5,0.3,0.9,0.3h6.8c0.3,0,0.6-0.1,0.9-0.3C4.5,5.5,4.6,5.2,4.7,5z"/>
</g>
</svg>
