<?xml version="1.0" encoding="utf-8"?>
<!-- Generator: Adobe Illustrator 21.0.2, SVG Export Plug-In . SVG Version: 6.00 Build 0)  -->
<svg version="1.1" id="Layer_1" xmlns="http://www.w3.org/2000/svg" xmlns:xlink="http://www.w3.org/1999/xlink" x="0px" y="0px"
	 viewBox="0 0 56.8 56.8" xml:space="preserve">
<g>
	<path stroke="black" fill="black" class="st0" d="M14.4-12c0.4,0.4,0.5,1,0.2,1.4L-3.2,27.6c-0.3,0.5-0.8,0.8-1.4,0.8c-0.2,0-0.3,0-0.5-0.1
		c-0.4-0.1-0.7-0.3-0.8-0.6C-6,27.4-6.1,27-6,26.7L0.5,0.1l-13.4,3.3c-0.1,0-0.3,0-0.4,0c-0.4,0-0.7-0.1-1-0.4
		c-0.4-0.3-0.6-0.8-0.4-1.3l6.6-27.1c0.1-0.3,0.3-0.6,0.5-0.8c0.3-0.2,0.6-0.3,0.9-0.3H4.1c0.4,0,0.8,0.1,1,0.4
		c0.3,0.3,0.4,0.6,0.4,1c0,0.2-0.1,0.4-0.2,0.6L-0.2-9.2l13-3.2c0.1,0,0.3-0.1,0.4-0.1C13.7-12.5,14.1-12.3,14.4-12z"/>
</g>
</svg>
